<?xml version="1.0" encoding="UTF-8" standalone="no" ?>
<!DOCTYPE svg PUBLIC "-//W3C//DTD SVG 1.1//EN" "http://www.w3.org/Graphics/SVG/1.1/DTD/svg11.dtd">
<svg xmlns="http://www.w3.org/2000/svg" xmlns:xlink="http://www.w3.org/1999/xlink" version="1.1" width="215" height="480" viewBox="0 0 215 480" xml:space="preserve">
<desc>Created with Fabric.js 3.6.3</desc>
<defs>
</defs>
<g transform="matrix(1 0 0 1 112.23 356.88)"  >
<g style=""   >
		<g transform="matrix(1.33 0 0 -1.33 -70.27 -57.56)" clip-path="url(#CLIPPATH_4)"  >
<clipPath id="CLIPPATH_4" >
	<path transform="matrix(1 0 0 1 46.22 -43.93) translate(-425.2, -425.2)" d="M 0 850.394 H 850.394 V 0 H 0 Z" stroke-linecap="round" />
</clipPath>
<path style="stroke: rgb(0,0,0); stroke-opacity: 0; stroke-width: 1; stroke-dasharray: none; stroke-linecap: butt; stroke-dashoffset: 0; stroke-linejoin: miter; stroke-miterlimit: 4; fill: rgb(255,195,0); fill-rule: nonzero; opacity: 1;"  transform=" translate(0, 25.16)" d="m 0 0 c 2.033 0 3.646 -0.666 5.074 -2.091 c 1.43 -1.431 2.095 -3.046 2.095 -5.077 v -8.006 H -7.283 l 0.115 8.006 c 0 2.034 0.665 3.647 2.091 5.075 C -3.647 -0.666 -2.035 0 0 0 m 0 12.77 c -5.459 0 -10.169 -1.943 -14 -5.772 c -3.828 -3.83 -5.771 -8.54 -5.771 -13.999 v -36.31 c 0 -5.462 1.943 -10.173 5.77 -13.997 c 3.826 -3.831 8.538 -5.774 14.001 -5.774 c 5.12 0 9.499 1.505 13.013 4.47 c 3.534 2.977 5.736 7.086 6.557 12.303 c 0.317 2.386 -0.517 3.915 -1.274 4.778 c -0.77 0.879 -2.218 1.927 -4.742 1.927 c -3.423 0 -5.97 -2.103 -6.634 -5.427 c -0.38 -1.746 -1.17 -3.094 -2.416 -4.12 c -1.223 -1.007 -2.696 -1.495 -4.504 -1.495 c -2.036 0 -3.649 0.664 -5.078 2.094 c -1.426 1.425 -2.09 3.037 -2.09 5.073 v 15.898 l 19.048 0.14 c 4.868 0 7.891 3.023 7.891 7.89 v 12.55 C 19.771 -1.544 17.829 3.166 13.998 7 C 10.166 10.828 5.456 12.77 0 12.77" stroke-linecap="round" />
</g>
		<g transform="matrix(1.33 0 0 -1.33 -9.57 -57.67)" clip-path="url(#CLIPPATH_5)"  >
<clipPath id="CLIPPATH_5" >
	<path transform="matrix(1 0 0 1 0.72 -44.01) translate(-425.2, -425.2)" d="M 0 850.394 H 850.394 V 0 H 0 Z" stroke-linecap="round" />
</clipPath>
<path style="stroke: rgb(0,0,0); stroke-opacity: 0; stroke-width: 1; stroke-dasharray: none; stroke-linecap: butt; stroke-dashoffset: 0; stroke-linejoin: miter; stroke-miterlimit: 4; fill: rgb(255,195,0); fill-rule: nonzero; opacity: 1;"  transform=" translate(6.69, -25.57)" d="M 0 0 V 0 C -2.035 0 -3.648 0.664 -5.077 2.094 C -6.504 3.52 -7.168 5.131 -7.168 7.168 v 14.187 v 1.71 v 34.291 c 0 3.72 -2.498 6.219 -6.217 6.219 c -3.818 0 -6.385 -2.499 -6.385 -6.219 V 23.065 V 21.355 V 7.335 c 0 -5.461 1.942 -10.173 5.77 -13.996 c 3.826 -3.832 8.537 -5.774 14 -5.774 h 0.001 c 3.818 0 6.384 2.533 6.384 6.301 C 6.385 -2.465 3.819 0 0 0" stroke-linecap="round" />
</g>
		<g transform="matrix(1.33 0 0 -1.33 59.88 57.41)" clip-path="url(#CLIPPATH_6)"  >
<clipPath id="CLIPPATH_6" >
	<path transform="matrix(1 0 0 1 -51.37 42.3) translate(-425.2, -425.2)" d="M 0 850.394 H 850.394 V 0 H 0 Z" stroke-linecap="round" />
</clipPath>
<path style="stroke: rgb(0,0,0); stroke-opacity: 0; stroke-width: 1; stroke-dasharray: none; stroke-linecap: butt; stroke-dashoffset: 0; stroke-linejoin: miter; stroke-miterlimit: 4; fill: rgb(255,195,0); fill-rule: nonzero; opacity: 1;"  transform=" translate(6.69, -25.57)" d="M 0 0 H -0.001 C -2.036 0 -3.649 0.664 -5.078 2.095 C -6.505 3.52 -7.169 5.132 -7.169 7.168 v 14.187 v 1.71 v 34.291 c 0 3.72 -2.498 6.219 -6.217 6.219 c -3.818 0 -6.385 -2.499 -6.385 -6.219 V 23.065 V 21.355 V 7.336 c 0 -5.462 1.943 -10.174 5.77 -13.997 c 3.826 -3.831 8.537 -5.774 14.001 -5.774 c 3.818 0 6.384 2.533 6.384 6.301 C 6.384 -2.465 3.818 0 0 0" stroke-linecap="round" />
</g>
		<g transform="matrix(1.33 0 0 -1.33 -70.16 57.3)" clip-path="url(#CLIPPATH_7)"  >
<clipPath id="CLIPPATH_7" >
	<path transform="matrix(1 0 0 1 46.14 42.21) translate(-425.2, -425.2)" d="M 0 850.394 H 850.394 V 0 H 0 Z" stroke-linecap="round" />
</clipPath>
<path style="stroke: rgb(0,0,0); stroke-opacity: 0; stroke-width: 1; stroke-dasharray: none; stroke-linecap: butt; stroke-dashoffset: 0; stroke-linejoin: miter; stroke-miterlimit: 4; fill: rgb(255,195,0); fill-rule: nonzero; opacity: 1;"  transform=" translate(14.73, -4.23)" d="m 0 0 c -1.47 1.655 -3.209 3.272 -5.175 4.812 c -1.771 1.382 -3.712 2.852 -6.026 4.559 l -2.203 1.525 c -2.593 1.76 -4.844 3.566 -6.696 5.364 c -1.287 1.251 -1.886 2.825 -1.886 4.954 c 0 2.644 0.674 4.681 2.058 6.221 c 1.303 1.447 2.926 2.12 5.11 2.12 c 1.714 0 3.173 -0.501 4.458 -1.527 c 1.292 -1.035 2.098 -2.331 2.45 -3.859 c 0.677 -3.387 3.223 -5.49 6.646 -5.49 c 2.524 0 3.972 1.049 4.743 1.927 c 0.756 0.864 1.59 2.392 1.273 4.778 l -0.021 0.138 c -0.814 4.749 -3.054 8.745 -6.662 11.879 c -3.638 3.156 -7.974 4.756 -12.887 4.756 c -6.223 0 -11.158 -2.029 -14.666 -6.032 c -3.387 -3.86 -5.104 -8.82 -5.104 -14.742 c 0 -4.829 1.528 -8.983 4.544 -12.347 c 2.606 -2.908 6.446 -6.152 11.663 -9.862 l 2.147 -1.606 c 2.61 -1.776 4.905 -3.594 6.816 -5.397 c 1.321 -1.253 1.937 -2.817 1.937 -4.924 c 0 -2.645 -0.673 -4.681 -2.061 -6.222 c -1.3 -1.444 -2.924 -2.117 -5.109 -2.117 c -1.717 0 -3.175 0.499 -4.462 1.53 c -1.288 1.031 -2.094 2.323 -2.444 3.856 c -0.677 3.387 -3.16 5.489 -6.479 5.489 c -2.637 0 -4.127 -1.071 -4.913 -1.97 c -0.755 -0.862 -1.589 -2.385 -1.272 -4.741 l 0.021 -0.131 c 0.815 -4.754 3.057 -8.752 6.659 -11.877 c 3.633 -3.157 7.97 -4.758 12.89 -4.758 c 6.221 0 11.155 2.029 14.669 6.033 c 3.385 3.863 5.102 8.822 5.102 14.741 c 0 2.618 -0.469 5.028 -1.395 7.166 C 2.844 -3.725 1.591 -1.789 0 0" stroke-linecap="round" />
</g>
		<g transform="matrix(1.33 0 0 -1.33 -0.74 57.3)" clip-path="url(#CLIPPATH_8)"  >
<clipPath id="CLIPPATH_8" >
	<path transform="matrix(1 0 0 1 -5.92 42.21) translate(-425.2, -425.2)" d="M 0 850.394 H 850.394 V 0 H 0 Z" stroke-linecap="round" />
</clipPath>
<path style="stroke: rgb(0,0,0); stroke-opacity: 0; stroke-width: 1; stroke-dasharray: none; stroke-linecap: butt; stroke-dashoffset: 0; stroke-linejoin: miter; stroke-miterlimit: 4; fill: rgb(255,195,0); fill-rule: nonzero; opacity: 1;"  transform=" translate(0.17, -25.32)" d="M 0 0 C -2.035 0 -3.648 0.664 -5.077 2.095 C -6.504 3.52 -7.168 5.131 -7.168 7.168 v 36.311 c 0 2.034 0.666 3.646 2.092 5.074 c 1.429 1.427 3.042 2.093 5.076 2.093 c 2.033 0 3.646 -0.666 5.074 -2.09 C 6.505 47.124 7.17 45.51 7.17 43.479 V 7.168 C 7.17 5.134 6.505 3.521 5.075 2.093 C 3.647 0.664 2.035 0 0 0 m -0.167 63.249 c -5.459 0 -10.169 -1.943 -14 -5.771 c -3.828 -3.831 -5.77 -8.54 -5.77 -13.999 V 7.168 c 0 -5.462 1.942 -10.173 5.77 -13.997 c 3.826 -3.831 8.537 -5.774 14 -5.774 c 5.46 0 10.171 1.943 14.001 5.772 c 3.828 3.83 5.77 8.54 5.77 13.999 v 36.311 c 0 5.456 -1.942 10.166 -5.773 14 c -3.832 3.829 -8.542 5.77 -13.998 5.77" stroke-linecap="round" />
</g>
		<g transform="matrix(1.33 0 0 -1.33 51.72 -56.18)" clip-path="url(#CLIPPATH_9)"  >
<clipPath id="CLIPPATH_9" >
	<path transform="matrix(1 0 0 1 -44.53 -43.69) translate(-425.2, -425.2)" d="M 0 850.394 H 850.394 V 0 H 0 Z" stroke-linecap="round" />
</clipPath>
<path style="stroke: rgb(0,0,0); stroke-opacity: 0; stroke-width: 1; stroke-dasharray: none; stroke-linecap: butt; stroke-dashoffset: 0; stroke-linejoin: miter; stroke-miterlimit: 4; fill: rgb(255,86,45); fill-rule: nonzero; opacity: 1;"  transform=" translate(0.12, 4.77)" d="m 0 0 c 0 4.389 -2.726 11.84 -11.502 11.84 c -8.776 0 -12.006 -8.031 -12.006 -12.254 c 0 -4.222 1.822 -8.611 6.79 -11.508 c 4.107 -2.396 12.85 -7.509 15.756 -9.208 c 0.594 -0.348 1.328 -0.345 1.919 0.007 c 3.381 2.01 14.632 8.702 16.106 9.614 c 1.739 1.077 6.21 4.306 6.21 10.764 c 0 6.458 -5.133 12.088 -11.508 12.088 c -5.486 0 -8.115 -3.725 -8.115 -3.725 c 0 0 0.907 0.64 3.726 0.64 c 4.306 0 7.812 -2.879 7.812 -7.953 c 0 -3.079 -1.56 -4.64 -3.425 -5.724 c -1.61 -0.935 -9.002 -5.22 -11.223 -6.469 c -0.344 -0.194 -0.763 -0.192 -1.105 0.005 l -11.505 6.604 c 0 0 -3.339 1.879 -3.339 5.652 c 0 4.034 3.074 6.523 7.23 6.523 C -1.76 6.896 0 0 0 0" stroke-linecap="round" />
</g>
		<g transform="matrix(1.33 0 0 -1.33 50.93 -92.32)" clip-path="url(#CLIPPATH_10)"  >
<clipPath id="CLIPPATH_10" >
	<path transform="matrix(1 0 0 1 -44.62 -70.07) translate(-425.2, -425.2)" d="M 0 850.394 H 850.394 V 0 H 0 Z" stroke-linecap="round" />
</clipPath>
<path style="stroke: rgb(0,0,0); stroke-opacity: 0; stroke-width: 1; stroke-dasharray: none; stroke-linecap: butt; stroke-dashoffset: 0; stroke-linejoin: miter; stroke-miterlimit: 4; fill: rgb(255,86,45); fill-rule: nonzero; opacity: 1;"  transform=" translate(0.02, 9.92)" d="m 0 0 c 0 0 -2.326 -2.461 -2.326 -10.813 c 0 -5.652 2.326 -9.023 2.326 -9.023 c 0 0 2.276 3.565 2.276 9.172 C 2.276 -2.461 0 0 0 0" stroke-linecap="round" />
</g>
		<g transform="matrix(1.33 0 0 -1.33 73.23 -27.11)" clip-path="url(#CLIPPATH_11)"  >
<clipPath id="CLIPPATH_11" >
	<path transform="matrix(1 0 0 1 -61.36 -21.18) translate(-425.2, -425.2)" d="M 0 850.394 H 850.394 V 0 H 0 Z" stroke-linecap="round" />
</clipPath>
<path style="stroke: rgb(0,0,0); stroke-opacity: 0; stroke-width: 1; stroke-dasharray: none; stroke-linecap: butt; stroke-dashoffset: 0; stroke-linejoin: miter; stroke-miterlimit: 4; fill: rgb(255,86,45); fill-rule: nonzero; opacity: 1;"  transform=" translate(-4.33, 5.98)" d="m 0 0 c 0 0 -0.904 -2.938 2.777 -7.973 c 2.493 -3.408 5.968 -3.985 5.968 -3.985 c 0 0 0.375 3.574 -2.097 6.954 C 3.032 -0.06 0 0 0 0" stroke-linecap="round" />
</g>
		<g transform="matrix(1.33 0 0 -1.33 89.79 -45.2)" clip-path="url(#CLIPPATH_12)"  >
<clipPath id="CLIPPATH_12" >
	<path transform="matrix(1 0 0 1 -73.79 -34.75) translate(-425.2, -425.2)" d="M 0 850.394 H 850.394 V 0 H 0 Z" stroke-linecap="round" />
</clipPath>
<path style="stroke: rgb(0,0,0); stroke-opacity: 0; stroke-width: 1; stroke-dasharray: none; stroke-linecap: butt; stroke-dashoffset: 0; stroke-linejoin: miter; stroke-miterlimit: 4; fill: rgb(255,86,45); fill-rule: nonzero; opacity: 1;"  transform=" translate(-4.93, 1.61)" d="m 0 0 c 0 0 0.474 -2.762 4.626 -4.073 c 2.81 -0.887 5.236 0.959 5.236 0.959 c 0 0 -1.039 2.885 -3.827 3.765 C 1.957 1.938 0 0 0 0" stroke-linecap="round" />
</g>
		<g transform="matrix(1.33 0 0 -1.33 91.69 -71.05)" clip-path="url(#CLIPPATH_13)"  >
<clipPath id="CLIPPATH_13" >
	<path transform="matrix(1 0 0 1 -75.21 -54.13) translate(-425.2, -425.2)" d="M 0 850.394 H 850.394 V 0 H 0 Z" stroke-linecap="round" />
</clipPath>
<path style="stroke: rgb(0,0,0); stroke-opacity: 0; stroke-width: 1; stroke-dasharray: none; stroke-linecap: butt; stroke-dashoffset: 0; stroke-linejoin: miter; stroke-miterlimit: 4; fill: rgb(255,86,45); fill-rule: nonzero; opacity: 1;"  transform=" translate(3.64, 1.16)" d="m 0 0 c 0 0 -1.608 1.933 -4.673 0.958 c -2.073 -0.659 -2.604 -3.271 -2.604 -3.271 c 0 0 1.998 -1.757 4.055 -1.103 C -0.213 -2.459 0 0 0 0" stroke-linecap="round" />
</g>
		<g transform="matrix(1.33 0 0 -1.33 74.96 -90.88)" clip-path="url(#CLIPPATH_14)"  >
<clipPath id="CLIPPATH_14" >
	<path transform="matrix(1 0 0 1 -62.65 -69.01) translate(-425.2, -425.2)" d="M 0 850.394 H 850.394 V 0 H 0 Z" stroke-linecap="round" />
</clipPath>
<path style="stroke: rgb(0,0,0); stroke-opacity: 0; stroke-width: 1; stroke-dasharray: none; stroke-linecap: butt; stroke-dashoffset: 0; stroke-linejoin: miter; stroke-miterlimit: 4; fill: rgb(255,86,45); fill-rule: nonzero; opacity: 1;"  transform=" translate(3.25, 4.2)" d="m 0 0 c 0 0 -2.712 0.43 -5.463 -3.116 c -1.861 -2.399 -1.071 -5.305 -1.071 -5.305 c 0 0 3.035 0.069 4.883 2.45 C 1.05 -2.489 0 0 0 0" stroke-linecap="round" />
</g>
		<g transform="matrix(1.33 0 0 -1.33 28.96 -27.34)" clip-path="url(#CLIPPATH_15)"  >
<clipPath id="CLIPPATH_15" >
	<path transform="matrix(1 0 0 1 -28.16 -21.35) translate(-425.2, -425.2)" d="M 0 850.394 H 850.394 V 0 H 0 Z" stroke-linecap="round" />
</clipPath>
<path style="stroke: rgb(0,0,0); stroke-opacity: 0; stroke-width: 1; stroke-dasharray: none; stroke-linecap: butt; stroke-dashoffset: 0; stroke-linejoin: miter; stroke-miterlimit: 4; fill: rgb(255,86,45); fill-rule: nonzero; opacity: 1;"  transform=" translate(4.46, 6.15)" d="m 0 0 c 0 0 0.874 -2.98 -2.912 -8.156 c -2.562 -3.504 -6.079 -4.137 -6.079 -4.137 c 0 0 -0.331 3.633 2.21 7.108 C -3.063 -0.101 0 0 0 0" stroke-linecap="round" />
</g>
		<g transform="matrix(1.33 0 0 -1.33 12.21 -45.19)" clip-path="url(#CLIPPATH_16)"  >
<clipPath id="CLIPPATH_16" >
	<path transform="matrix(1 0 0 1 -15.59 -34.74) translate(-425.2, -425.2)" d="M 0 850.394 H 850.394 V 0 H 0 Z" stroke-linecap="round" />
</clipPath>
<path style="stroke: rgb(0,0,0); stroke-opacity: 0; stroke-width: 1; stroke-dasharray: none; stroke-linecap: butt; stroke-dashoffset: 0; stroke-linejoin: miter; stroke-miterlimit: 4; fill: rgb(255,86,45); fill-rule: nonzero; opacity: 1;"  transform=" translate(4.92, 1.61)" d="m 0 0 c 0 0 -0.47 -2.76 -4.609 -4.067 c -2.801 -0.884 -5.222 0.963 -5.222 0.963 c 0 0 1.033 2.883 3.811 3.761 C -1.954 1.94 0 0 0 0" stroke-linecap="round" />
</g>
		<g transform="matrix(1.33 0 0 -1.33 10.34 -71.05)" clip-path="url(#CLIPPATH_17)"  >
<clipPath id="CLIPPATH_17" >
	<path transform="matrix(1 0 0 1 -14.19 -54.13) translate(-425.2, -425.2)" d="M 0 850.394 H 850.394 V 0 H 0 Z" stroke-linecap="round" />
</clipPath>
<path style="stroke: rgb(0,0,0); stroke-opacity: 0; stroke-width: 1; stroke-dasharray: none; stroke-linecap: butt; stroke-dashoffset: 0; stroke-linejoin: miter; stroke-miterlimit: 4; fill: rgb(255,86,45); fill-rule: nonzero; opacity: 1;"  transform=" translate(-3.64, 1.16)" d="m 0 0 c 0 0 1.608 1.933 4.673 0.958 c 2.073 -0.659 2.604 -3.271 2.604 -3.271 c 0 0 -1.998 -1.757 -4.055 -1.103 C 0.213 -2.459 0 0 0 0" stroke-linecap="round" />
</g>
		<g transform="matrix(1.33 0 0 -1.33 27.07 -90.88)" clip-path="url(#CLIPPATH_18)"  >
<clipPath id="CLIPPATH_18" >
	<path transform="matrix(1 0 0 1 -26.74 -69.01) translate(-425.2, -425.2)" d="M 0 850.394 H 850.394 V 0 H 0 Z" stroke-linecap="round" />
</clipPath>
<path style="stroke: rgb(0,0,0); stroke-opacity: 0; stroke-width: 1; stroke-dasharray: none; stroke-linecap: butt; stroke-dashoffset: 0; stroke-linejoin: miter; stroke-miterlimit: 4; fill: rgb(255,86,45); fill-rule: nonzero; opacity: 1;"  transform=" translate(-3.25, 4.2)" d="m 0 0 c 0 0 2.712 0.43 5.463 -3.116 c 1.861 -2.399 1.071 -5.305 1.071 -5.305 c 0 0 -3.035 0.069 -4.883 2.45 C -1.05 -2.489 0 0 0 0" stroke-linecap="round" />
</g>
		<g transform="matrix(1.33 0 0 -1.33 50.93 -19.59)" clip-path="url(#CLIPPATH_19)"  >
<clipPath id="CLIPPATH_19" >
	<path transform="matrix(1 0 0 1 -44.62 -15.53) translate(-425.2, -425.2)" d="M 0 850.394 H 850.394 V 0 H 0 Z" stroke-linecap="round" />
</clipPath>
<path style="stroke: rgb(0,0,0); stroke-opacity: 0; stroke-width: 1; stroke-dasharray: none; stroke-linecap: butt; stroke-dashoffset: 0; stroke-linejoin: miter; stroke-miterlimit: 4; fill: rgb(255,86,45); fill-rule: nonzero; opacity: 1;"  transform=" translate(0.02, 7.49)" d="m 0 0 c 0 0 -2.326 -1.86 -2.326 -8.171 c 0 -4.271 2.326 -6.818 2.326 -6.818 c 0 0 2.276 2.694 2.276 6.931 C 2.276 -1.86 0 0 0 0" stroke-linecap="round" />
</g>
</g>
</g>
</svg>